<?xml version="1.0" encoding="UTF-8" standalone="no"?>
<!-- Created with Inkscape (http://www.inkscape.org/) -->

<svg
   xmlns:dc="http://purl.org/dc/elements/1.1/"
   xmlns:cc="http://creativecommons.org/ns#"
   xmlns:rdf="http://www.w3.org/1999/02/22-rdf-syntax-ns#"
   xmlns:svg="http://www.w3.org/2000/svg"
   xmlns="http://www.w3.org/2000/svg"
   xmlns:sodipodi="http://sodipodi.sourceforge.net/DTD/sodipodi-0.dtd"
   xmlns:inkscape="http://www.inkscape.org/namespaces/inkscape"
   width="1028"
   height="198.10175"
   id="svg2"
   version="1.1"
   inkscape:version="0.48.3.1 r9886"
   inkscape:export-filename="/home/ivajo/Imágenes/DevHunter-Logo-1024.png"
   inkscape:export-xdpi="89.499466"
   inkscape:export-ydpi="89.499466"
   sodipodi:docname="DevHunter-Logo.svg">
  <defs
     id="defs4" />
  <sodipodi:namedview
     id="base"
     pagecolor="#ffffff"
     bordercolor="#666666"
     borderopacity="1.0"
     inkscape:pageopacity="0.0"
     inkscape:pageshadow="2"
     inkscape:zoom="0.64000001"
     inkscape:cx="417.11242"
     inkscape:cy="-7.3793649"
     inkscape:document-units="px"
     inkscape:current-layer="layer1"
     showgrid="false"
     fit-margin-top="2"
     fit-margin-left="2"
     fit-margin-right="2"
     fit-margin-bottom="1.5"
     inkscape:window-width="1366"
     inkscape:window-height="746"
     inkscape:window-x="0"
     inkscape:window-y="0"
     inkscape:window-maximized="1" />
  <metadata
     id="metadata7">
    <rdf:RDF>
      <cc:Work
         rdf:about="">
        <dc:format>image/svg+xml</dc:format>
        <dc:type
           rdf:resource="http://purl.org/dc/dcmitype/StillImage" />
        <dc:title></dc:title>
      </cc:Work>
    </rdf:RDF>
  </metadata>
  <g
     inkscape:label="Capa 1"
     inkscape:groupmode="layer"
     id="layer1"
     transform="translate(-199.4286,-365.20843)">
    <rect
       style="fill:#3cadd4;fill-opacity:1;stroke:none"
       id="rect2993"
       width="385.03635"
       height="189.659"
       x="201.4286"
       y="367.20844"
       rx="12.213558"
       ry="11.417073" />
    <g
       id="flowRoot2985"
       style="font-size:40px;font-style:normal;font-weight:normal;line-height:125%;letter-spacing:0px;word-spacing:0px;fill:#ffffff;fill-opacity:1;stroke:none;font-family:Sans"
       transform="matrix(5.1177486,0,0,5.6449245,-428.53661,-2418.893)">
      <path
         inkscape:connector-curvature="0"
         id="path2993"
         style="font-variant:normal;font-weight:bold;font-stretch:normal;fill:#ffffff;font-family:Raleway;-inkscape-font-specification:Raleway Bold"
         d="m 125.80375,523.81532 0,-28.4 10.32,0 c 2.31998,3e-5 4.34665,0.37336 6.08,1.12 1.75998,0.74669 3.22664,1.76003 4.4,3.04 1.17331,1.28002 2.05331,2.78669 2.64,4.52 0.58664,1.70669 0.87997,3.53335 0.88,5.48 -3e-5,2.16001 -0.33336,4.12001 -1,5.88 -0.64003,1.73334 -1.57336,3.22667 -2.8,4.48 -1.22669,1.22667 -2.70669,2.18667 -4.44,2.88 -1.70668,0.66667 -3.62668,1 -5.76,1 l -10.32,0 m 18.76,-14.24 c -2e-5,-1.35998 -0.18669,-2.61331 -0.56,-3.76 -0.37335,-1.14665 -0.92002,-2.13331 -1.64,-2.96 -0.72002,-0.82664 -1.61335,-1.46664 -2.68,-1.92 -1.04002,-0.45331 -2.22668,-0.67997 -3.56,-0.68 l -4.8,0 0,18.72 4.8,0 c 1.35999,10e-6 2.55998,-0.23999 3.6,-0.72 1.06665,-0.47999 1.94665,-1.13333 2.64,-1.96 0.71998,-0.85332 1.26665,-1.85332 1.64,-3 0.37331,-1.14665 0.55998,-2.38665 0.56,-3.72" />
      <path
         inkscape:connector-curvature="0"
         id="path2995"
         style="font-variant:normal;font-weight:bold;font-stretch:normal;fill:#ffffff;font-family:Raleway;-inkscape-font-specification:Raleway Bold"
         d="m 163.75375,524.21532 c -1.68001,0 -3.20001,-0.28 -4.56,-0.84 -1.36001,-0.58666 -2.52001,-1.37333 -3.48,-2.36 -0.96,-0.98666 -1.70667,-2.13333 -2.24,-3.44 -0.50667,-1.30666 -0.76,-2.67999 -0.76,-4.12 0,-1.49332 0.25333,-2.89332 0.76,-4.2 0.50666,-1.33332 1.24,-2.49331 2.2,-3.48 0.95999,-1.01331 2.11999,-1.81331 3.48,-2.4 1.38666,-0.58664 2.93332,-0.87998 4.64,-0.88 1.70665,2e-5 3.22665,0.29336 4.56,0.88 1.35998,0.58669 2.50665,1.37335 3.44,2.36 0.95998,0.98669 1.67998,2.13335 2.16,3.44 0.50664,1.30668 0.75998,2.66668 0.76,4.08 -2e-5,0.34668 -0.0134,0.68001 -0.04,1 -2e-5,0.32001 -0.0267,0.58668 -0.08,0.8 l -16.2,0 c 0.08,0.82668 0.27999,1.56001 0.6,2.2 0.31999,0.64001 0.73333,1.18667 1.24,1.64 0.50666,0.45334 1.07999,0.80001 1.72,1.04 0.63999,0.24001 1.30665,0.36001 2,0.36 1.06665,1e-5 2.06665,-0.25333 3,-0.76 0.95998,-0.53333 1.61332,-1.22666 1.96,-2.08 l 4.6,1.28 c -0.77335,1.60001 -2.01335,2.92 -3.72,3.96 -1.68002,1.01333 -3.69335,1.52 -6.04,1.52 m 5.44,-12.64 c -0.13335,-1.57332 -0.72002,-2.82665 -1.76,-3.76 -1.01335,-0.95998 -2.25335,-1.43998 -3.72,-1.44 -0.72001,2e-5 -1.40001,0.13335 -2.04,0.4 -0.61334,0.24002 -1.16001,0.58668 -1.64,1.04 -0.48001,0.45335 -0.88001,1.00002 -1.2,1.64 -0.29334,0.64002 -0.46667,1.34668 -0.52,2.12 l 10.88,0" />
      <path
         inkscape:connector-curvature="0"
         id="path2997"
         style="font-variant:normal;font-weight:bold;font-stretch:normal;fill:#ffffff;font-family:Raleway;-inkscape-font-specification:Raleway Bold"
         d="m 182.99125,523.81532 -7.72,-20.96 5.52,0 5.32,16.6 5.36,-16.6 5.04,0 -7.72,20.96 -5.8,0" />
    </g>
    <g
       id="text2999"
       style="font-size:37.60432816000000145px;font-style:normal;font-weight:normal;line-height:125%;letter-spacing:0px;word-spacing:0px;fill:#ffffff;fill-opacity:1;stroke:none;font-family:Sans"
       transform="matrix(5.0870463,0,0,6.524421,-873.62346,-2893.183)"
       inkscape:export-filename="/home/ivajo/Imágenes/DevHunter-Logo-1024.png"
       inkscape:export-xdpi="148.25977"
       inkscape:export-ydpi="148.25977">
      <path
         inkscape:connector-curvature="0"
         id="path2994"
         style="font-variant:normal;font-weight:bold;font-stretch:normal;fill:#ffffff;font-family:Raleway;-inkscape-font-specification:Raleway Bold;fill-opacity:1"
         d="m 312.39763,500.83859 0,26.69907 -5.15179,0 0,-11.39411 -12.10859,0 0,11.39411 -5.1894,0 0,-26.69907 5.1894,0 0,10.79244 12.10859,0 0,-10.79244 5.15179,0" />
      <path
         inkscape:connector-curvature="0"
         id="path2996"
         style="font-variant:normal;font-weight:bold;font-stretch:normal;fill:#ffffff;font-family:Raleway;-inkscape-font-specification:Raleway Bold;fill-opacity:1"
         d="m 323.42099,527.9137 c -2.03064,0 -3.57241,-0.65181 -4.62533,-1.95542 -1.05293,-1.30362 -1.57939,-3.23397 -1.57938,-5.79107 l 0,-12.33422 5.03898,0 0,11.24369 c -1e-5,3.03343 1.09051,4.55013 3.27157,4.55013 1.00277,0 1.95542,-0.2883 2.85793,-0.8649 0.92756,-0.60166 1.67965,-1.50417 2.25626,-2.70751 l 0,-12.22141 5.03898,0 0,13.9136 c -2e-5,0.52647 0.10026,0.90251 0.30084,1.12813 0.20053,0.22563 0.55151,0.35098 1.05292,0.37605 l 0,4.28689 c -0.52648,0.10028 -0.99027,0.16295 -1.39136,0.18802 -0.40114,0.0501 -0.75211,0.0752 -1.05292,0.0752 -0.90253,0 -1.61701,-0.20056 -2.14345,-0.60167 -0.50141,-0.42618 -0.81478,-1.00278 -0.94011,-1.7298 l -0.11281,-1.61699 c -0.90252,1.35376 -2.04318,2.36908 -3.422,3.04596 -1.35376,0.67687 -2.87047,1.01531 -4.55012,1.01531" />
      <path
         inkscape:connector-curvature="0"
         id="path2998"
         style="font-variant:normal;font-weight:bold;font-stretch:normal;fill:#ffffff;font-family:Raleway;-inkscape-font-specification:Raleway Bold;fill-opacity:1"
         d="m 359.07342,527.53766 -5.03898,0 0,-11.05567 c -2e-5,-1.57937 -0.27578,-2.73257 -0.82729,-3.4596 -0.55155,-0.727 -1.31617,-1.09051 -2.29387,-1.09053 -0.5014,2e-5 -1.01533,0.1003 -1.54178,0.30084 -0.52647,0.20057 -1.02786,0.48887 -1.50417,0.8649 -0.45126,0.35098 -0.86491,0.77717 -1.24094,1.27854 -0.37605,0.50141 -0.65182,1.05294 -0.8273,1.65459 l 0,11.50693 -5.03898,0 0,-19.70467 4.55013,0 0,3.64762 c 0.72701,-1.25346 1.77993,-2.23117 3.15876,-2.93314 1.37881,-0.70192 2.93312,-1.0529 4.66294,-1.05292 1.22839,2e-5 2.23117,0.22565 3.00834,0.67688 0.77714,0.45127 1.37881,1.0404 1.80501,1.7674 0.42616,0.72704 0.71446,1.55433 0.8649,2.48189 0.17547,0.92759 0.26321,1.86769 0.26323,2.82032 l 0,12.29662" />
      <path
         inkscape:connector-curvature="0"
         id="path3000"
         style="font-variant:normal;font-weight:bold;font-stretch:normal;fill:#ffffff;font-family:Raleway;-inkscape-font-specification:Raleway Bold;fill-opacity:1"
         d="m 375.15338,526.52234 c -0.67689,0.30084 -1.51672,0.60167 -2.51949,0.90251 -0.97772,0.30083 -2.00557,0.45125 -3.08355,0.45125 -0.70196,0 -1.3663,-0.0877 -1.99303,-0.26323 -0.60168,-0.17549 -1.14067,-0.45125 -1.61699,-0.8273 -0.45126,-0.40111 -0.81476,-0.9025 -1.09053,-1.50417 -0.27576,-0.62674 -0.41365,-1.37882 -0.41364,-2.25626 l 0,-11.3189 -2.5571,0 0,-3.87325 2.5571,0 0,-6.39274 5.03898,0 0,6.39274 4.17408,0 0,3.87325 -4.17408,0 0,9.6267 c -10e-6,0.70196 0.18801,1.20335 0.56406,1.50418 0.37604,0.27577 0.82729,0.41365 1.35376,0.41365 0.52645,0 1.04037,-0.0877 1.54178,-0.26324 0.50137,-0.17548 0.90249,-0.32589 1.20333,-0.45125 l 1.01532,3.98606" />
      <path
         inkscape:connector-curvature="0"
         id="path3002"
         style="font-variant:normal;font-weight:bold;font-stretch:normal;fill:#ffffff;font-family:Raleway;-inkscape-font-specification:Raleway Bold;fill-opacity:1"
         d="m 386.87888,527.9137 c -1.57939,0 -3.00835,-0.26323 -4.28689,-0.78969 -1.27855,-0.55153 -2.36908,-1.29108 -3.27158,-2.21865 -0.9025,-0.92757 -1.60445,-2.00556 -2.10584,-3.23398 -0.47632,-1.2284 -0.71448,-2.51948 -0.71448,-3.87324 0,-1.40389 0.23816,-2.72004 0.71448,-3.94846 0.47632,-1.25346 1.16573,-2.34398 2.06824,-3.27157 0.9025,-0.95263 1.99302,-1.70471 3.27157,-2.25626 1.30361,-0.55151 2.75765,-0.82728 4.36211,-0.8273 1.60443,2e-5 3.0334,0.27579 4.28689,0.8273 1.27853,0.55155 2.35652,1.2911 3.23397,2.21865 0.90249,0.92759 1.57936,2.00558 2.03064,3.23397 0.4763,1.22843 0.71446,2.50697 0.71448,3.83565 -2e-5,0.32591 -0.0126,0.63928 -0.0376,0.9401 -2e-5,0.30085 -0.0251,0.55154 -0.0752,0.75209 l -15.22976,0 c 0.0752,0.77716 0.26323,1.46658 0.56407,2.06824 0.30082,0.60167 0.6894,1.1156 1.16573,1.54178 0.47631,0.42618 1.01531,0.75209 1.61699,0.97771 0.60166,0.22563 1.22839,0.33844 1.88021,0.33844 1.00277,0 1.94288,-0.23816 2.82033,-0.71448 0.90249,-0.50139 1.51669,-1.1532 1.84261,-1.95543 l 4.3245,1.20334 c -0.72704,1.50418 -1.89277,2.74512 -3.4972,3.72283 -1.5794,0.95264 -3.47215,1.42896 -5.67826,1.42896 m 5.11419,-11.88297 c -0.12536,-1.47909 -0.67689,-2.65735 -1.65459,-3.5348 -0.95266,-0.90249 -2.11839,-1.35374 -3.4972,-1.35376 -0.67689,2e-5 -1.31616,0.12537 -1.91782,0.37604 -0.57661,0.22565 -1.09054,0.55155 -1.54178,0.97772 -0.45126,0.42619 -0.8273,0.94012 -1.12813,1.54177 -0.27577,0.60169 -0.43872,1.26603 -0.48886,1.99303 l 10.22838,0" />
      <path
         inkscape:connector-curvature="0"
         id="path3004"
         style="font-variant:normal;font-weight:bold;font-stretch:normal;fill:#ffffff;font-family:Raleway;-inkscape-font-specification:Raleway Bold;fill-opacity:1"
         d="m 411.98388,512.19509 c -1.52925,0.0251 -2.89554,0.32592 -4.09887,0.90251 -1.20335,0.55154 -2.06825,1.39137 -2.5947,2.51949 l 0,11.92057 -5.03898,0 0,-19.70467 4.62533,0 0,4.21169 c 0.67687,-1.35374 1.55431,-2.44427 2.63231,-3.27158 1.10305,-0.82728 2.25624,-1.24092 3.45959,-1.24094 0.27576,2e-5 0.47631,0.0126 0.60167,0.0376 0.15041,2e-5 0.28829,0.0126 0.41365,0.0376 l 0,4.58773" />
    </g>
  </g>
</svg>
